<svg width="194" height="268" viewBox="0 0 194 268" fill="none" xmlns="http://www.w3.org/2000/svg">
<g>
<path d="M96.8995 0C105.51 0.478654 112.435 0.574385 119.267 1.2445C135.178 2.7762 150.807 6.12678 165.688 12.445C174.298 16.1785 182.44 20.6779 188.711 28.0491C194.981 35.5162 195.356 43.1746 189.46 50.5459C187.12 53.4178 184.312 56.0983 181.317 58.3001C171.771 65.4799 160.821 69.5006 149.497 72.7555C129.375 78.4036 108.879 80.2225 88.1021 79.1694C77.9008 78.6908 67.7931 77.0633 57.7791 75.5317C46.3611 73.8085 35.5047 70.2664 25.1163 65.2884C18.0971 62.0336 11.733 58.0129 6.58556 52.2691C0.689418 45.8551 -0.714425 39.0582 3.21634 32.2613C5.27531 28.6235 8.36376 25.3687 11.5458 22.6882C19.1266 16.2742 28.1112 12.1578 37.4701 9.28589C45.7996 6.79689 54.3162 4.78654 62.8329 2.87193C66.2021 2.10608 69.7585 1.81889 73.2213 1.53169C81.738 0.861578 90.1611 0.382923 96.8995 0Z" fill="#FF3D00"/>
<path d="M192.47 140.361C192.563 141.702 192.75 142.659 192.75 143.616C192.75 150.987 192.75 158.454 192.75 165.826C192.75 174.729 189.007 181.813 182.643 187.557C173.658 195.694 162.895 200.576 151.665 204.309C139.03 208.522 126.208 212.159 113.386 215.701C101.313 218.956 88.9596 221.637 76.8865 224.796C59.8532 229.295 42.9135 234.082 27.0033 242.027C23.9148 243.559 20.9199 245.282 18.0187 247.101C16.4276 248.058 15.1174 248.154 13.7135 247.005C10.8123 244.421 7.53663 242.027 4.91612 239.155C-1.44797 232.071 -1.07361 223.551 2.85715 215.606C7.06868 207.086 14.4623 201.82 22.4174 197.417C34.3968 190.811 47.3122 186.408 60.4147 183.057C73.8916 179.515 87.4621 176.356 101.033 172.91C111.702 170.229 122.371 167.549 133.04 164.964C145.301 161.996 157.467 158.359 168.979 153.094C175.811 150.03 182.175 145.914 188.726 142.276C189.568 141.797 190.317 141.223 191.159 140.744C191.44 140.649 191.721 140.553 192.47 140.361Z" fill="#FF3D00"/>
<path d="M192.751 93.2607C192.751 96.6113 192.657 99.9619 192.751 103.313C193.312 114.322 188.165 122.172 179.835 128.299C170.383 135.191 159.713 139.499 148.763 142.945C139.405 145.913 129.952 148.594 120.499 151.083C109.737 153.859 98.9738 156.156 88.211 158.741C81.1918 160.464 74.079 162.188 67.1534 164.006C59.7598 165.921 52.3662 167.931 45.0662 170.229C30.2791 174.92 15.8663 180.568 3.32529 190.141C2.57658 190.716 1.54709 190.907 0.704786 191.29C0.517607 190.333 0.143249 189.375 0.143249 188.322C-0.0439305 175.973 2.3894 164.389 9.22144 154.05C15.024 145.243 22.6983 138.638 31.4022 133.181C42.9137 126.001 55.3611 120.831 68.2765 117.098C80.8175 113.46 93.5456 110.109 106.18 106.855C119.283 103.408 132.572 100.441 145.675 96.8985C158.497 93.4522 171.225 89.6229 182.737 82.7302C185.17 81.2942 187.416 79.5711 189.756 78.0393C190.411 77.5607 191.253 77.3692 192.002 77.082C192.283 77.8479 192.657 78.6137 192.751 79.4753C192.844 83.9747 192.751 88.5698 192.751 93.2607Z" fill="#FF3D00"/>
<path d="M192.376 202.012C192.564 203.256 192.751 204.118 192.751 204.884C192.751 212.255 192.751 219.53 192.751 226.902C192.657 234.177 188.539 239.155 183.485 243.654C176.934 249.398 169.353 253.132 161.398 256.291C151.852 260.12 141.932 262.609 131.917 264.332C118.721 266.534 105.432 267.587 92.1419 267.204C88.6791 267.108 85.3098 267.013 81.847 266.726C69.1188 265.96 56.5778 263.949 44.3176 260.599C41.3227 259.737 38.3279 258.684 35.333 257.631C35.333 257.344 35.333 257.057 35.333 256.674C37.2984 255.717 39.2638 254.664 41.3227 253.802C53.583 248.728 66.124 244.899 78.9458 241.74C92.3291 238.389 105.712 235.134 119.096 231.688C134.538 227.667 149.98 223.551 164.767 217.424C173.471 213.882 181.894 209.766 189.381 203.831C190.13 203.16 191.16 202.778 192.376 202.012Z" fill="#FF3D00"/>
</g>
</svg>
